GSerif01-AuthorTextRegular04.ufo
<glyph name="G" format="1">
  <advance width="768"/>
  <unicode hex="0047"/>
  <outline>
    <contour>
      <point x="488" y="348" type="line"/>
      <point x="488" y="306" type="line"/>
      <point x="498" y="306" type="line" smooth="yes"/>
      <point x="546" y="306"/>
      <point x="581" y="300"/>
      <point x="581" y="270" type="curve"/>
      <point x="671" y="270" type="line"/>
      <point x="671" y="300"/>
      <point x="704" y="306"/>
      <point x="743" y="306" type="curve" smooth="yes"/>
      <point x="748" y="306" type="line"/>
      <point x="748" y="348" type="line"/>
    </contour>
    <contour>
      <point x="158" y="355" type="curve" smooth="yes"/>
      <point x="158" y="544"/>
      <point x="261" y="669"/>
      <point x="412" y="669" type="curve" smooth="yes"/>
      <point x="510" y="669"/>
      <point x="583" y="614"/>
      <point x="609" y="556" type="curve"/>
      <point x="618" y="594"/>
      <point x="595" y="623"/>
      <point x="566" y="622" type="curve"/>
      <point x="566" y="508" type="line"/>
      <point x="663" y="508" type="line"/>
      <point x="663" y="605" type="line"/>
      <point x="634" y="656"/>
      <point x="542" y="720"/>
      <point x="412" y="720" type="curve" smooth="yes"/>
      <point x="209" y="720"/>
      <point x="58" y="569"/>
      <point x="58" y="355" type="curve" smooth="yes"/>
      <point x="58" y="137"/>
      <point x="197" y="-10"/>
      <point x="408" y="-10" type="curve" smooth="yes"/>
      <point x="524" y="-10"/>
      <point x="632" y="60"/>
      <point x="671" y="121" type="curve"/>
      <point x="671" y="311" type="line"/>
      <point x="581" y="319" type="line"/>
      <point x="581" y="124" type="line"/>
      <point x="560" y="100"/>
      <point x="500" y="45"/>
      <point x="409" y="45" type="curve" smooth="yes"/>
      <point x="251" y="45"/>
      <point x="158" y="164"/>
    </contour>
  </outline>
</glyph>
<glyph name="H" format="1">
  <advance width="824"/>
  <unicode hex="0048"/>
  <outline>
    <contour>
      <point x="147" y="0" type="line"/>
      <point x="240" y="0" type="line"/>
      <point x="240" y="710" type="line"/>
      <point x="147" y="710" type="line"/>
    </contour>
    <contour>
      <point x="51" y="41" type="line"/>
      <point x="51" y="0" type="line"/>
      <point x="334" y="0" type="line"/>
      <point x="334" y="41" type="line"/>
      <point x="324" y="41" type="line" smooth="yes"/>
      <point x="287" y="41"/>
      <point x="240" y="44"/>
      <point x="240" y="51" type="curve"/>
      <point x="147" y="77" type="line"/>
      <point x="147" y="48"/>
      <point x="110" y="41"/>
      <point x="63" y="41" type="curve" smooth="yes"/>
    </contour>
    <contour>
      <point x="51" y="710" type="line"/>
      <point x="51" y="669" type="line"/>
      <point x="63" y="669" type="line" smooth="yes"/>
      <point x="110" y="669"/>
      <point x="147" y="662"/>
      <point x="147" y="633" type="curve"/>
      <point x="240" y="659" type="line"/>
      <point x="240" y="666"/>
      <point x="287" y="669"/>
      <point x="324" y="669" type="curve" smooth="yes"/>
      <point x="334" y="669" type="line"/>
      <point x="334" y="710" type="line"/>
    </contour>
    <contour>
      <point x="584" y="0" type="line"/>
      <point x="677" y="0" type="line"/>
      <point x="677" y="710" type="line"/>
      <point x="584" y="710" type="line"/>
    </contour>
    <contour>
      <point x="489" y="41" type="line"/>
      <point x="489" y="0" type="line"/>
      <point x="772" y="0" type="line"/>
      <point x="772" y="41" type="line"/>
      <point x="760" y="41" type="line" smooth="yes"/>
      <point x="713" y="41"/>
      <point x="677" y="48"/>
      <point x="677" y="77" type="curve"/>
      <point x="584" y="51" type="line"/>
      <point x="584" y="44"/>
      <point x="536" y="41"/>
      <point x="499" y="41" type="curve" smooth="yes"/>
    </contour>
    <contour>
      <point x="489" y="710" type="line"/>
      <point x="489" y="669" type="line"/>
      <point x="499" y="669" type="line" smooth="yes"/>
      <point x="536" y="669"/>
      <point x="584" y="666"/>
      <point x="584" y="659" type="curve"/>
      <point x="677" y="633" type="line"/>
      <point x="677" y="662"/>
      <point x="713" y="669"/>
      <point x="760" y="669" type="curve" smooth="yes"/>
      <point x="772" y="669" type="line"/>
      <point x="772" y="710" type="line"/>
    </contour>
    <contour>
      <point x="207" y="392" type="line"/>
      <point x="207" y="340" type="line"/>
      <point x="616" y="340" type="line"/>
      <point x="616" y="392" type="line"/>
    </contour>
  </outline>
</glyph>
<glyph name="I" format="1">
  <advance width="496"/>
  <unicode hex="0049"/>
  <outline>
    <contour>
      <point x="202" y="0" type="line"/>
      <point x="295" y="0" type="line"/>
      <point x="295" y="710" type="line"/>
      <point x="202" y="710" type="line"/>
    </contour>
    <contour>
      <point x="51" y="41" type="line"/>
      <point x="51" y="0" type="line"/>
      <point x="444" y="0" type="line"/>
      <point x="444" y="41" type="line"/>
      <point x="378" y="41" type="line"/>
      <point x="331" y="41"/>
      <point x="295" y="48"/>
      <point x="295" y="77" type="curve"/>
      <point x="202" y="77" type="line"/>
      <point x="202" y="48"/>
      <point x="165" y="41"/>
      <point x="118" y="41" type="curve"/>
    </contour>
    <contour>
      <point x="51" y="710" type="line"/>
      <point x="51" y="669" type="line"/>
      <point x="118" y="669" type="line"/>
      <point x="165" y="669"/>
      <point x="202" y="662"/>
      <point x="202" y="633" type="curve"/>
      <point x="295" y="633" type="line"/>
      <point x="295" y="662"/>
      <point x="331" y="669"/>
      <point x="378" y="669" type="curve"/>
      <point x="444" y="669" type="line"/>
      <point x="444" y="710" type="line"/>
    </contour>
  </outline>
</glyph>
<glyph name="J" format="1">
  <advance width="533"/>
  <unicode hex="004A"/>
  <outline>
    <contour>
      <point x="30" y="7" type="line"/>
      <point x="64" y="-3"/>
      <point x="101" y="-10"/>
      <point x="154" y="-10" type="curve" smooth="yes"/>
      <point x="290" y="-10"/>
      <point x="380" y="55"/>
      <point x="380" y="224" type="curve" smooth="yes"/>
      <point x="380" y="710" type="line"/>
      <point x="287" y="710" type="line"/>
      <point x="287" y="224" type="line" smooth="yes"/>
      <point x="287" y="79"/>
      <point x="239" y="40"/>
      <point x="158" y="40" type="curve" smooth="yes"/>
      <point x="107" y="40"/>
      <point x="68" y="51"/>
      <point x="30" y="63" type="curve"/>
    </contour>
    <contour>
      <point x="148" y="710" type="line"/>
      <point x="148" y="669" type="line"/>
      <point x="202" y="669" type="line" smooth="yes"/>
      <point x="250" y="669"/>
      <point x="287" y="662"/>
      <point x="287" y="633" type="curve"/>
      <point x="380" y="633" type="line"/>
      <point x="380" y="662"/>
      <point x="416" y="669"/>
      <point x="464" y="669" type="curve" smooth="yes"/>
      <point x="498" y="669" type="line"/>
      <point x="498" y="710" type="line"/>
    </contour>
  </outline>
</glyph>
<glyph name="U" format="1">
  <advance width="808"/>
  <unicode hex="0055"/>
  <outline>
    <contour>
      <point x="48" y="710" type="line"/>
      <point x="48" y="669" type="line"/>
      <point x="60" y="669" type="line" smooth="yes"/>
      <point x="107" y="669"/>
      <point x="144" y="662"/>
      <point x="144" y="633" type="curve"/>
      <point x="237" y="659" type="line"/>
      <point x="237" y="666"/>
      <point x="286" y="669"/>
      <point x="324" y="669" type="curve" smooth="yes"/>
      <point x="334" y="669" type="line"/>
      <point x="334" y="710" type="line"/>
    </contour>
    <contour>
      <point x="504" y="710" type="line"/>
      <point x="504" y="669" type="line"/>
      <point x="518" y="669" type="line" smooth="yes"/>
      <point x="561" y="669"/>
      <point x="606" y="661"/>
      <point x="606" y="648" type="curve"/>
      <point x="664" y="619" type="line"/>
      <point x="664" y="656"/>
      <point x="700" y="669"/>
      <point x="747" y="669" type="curve" smooth="yes"/>
      <point x="760" y="669" type="line"/>
      <point x="760" y="710" type="line"/>
    </contour>
    <contour>
      <point x="237" y="262" type="curve" smooth="yes"/>
      <point x="237" y="710" type="line"/>
      <point x="144" y="710" type="line"/>
      <point x="144" y="261" type="line" smooth="yes"/>
      <point x="144" y="71"/>
      <point x="255" y="-10"/>
      <point x="410" y="-10" type="curve" smooth="yes"/>
      <point x="552" y="-10"/>
      <point x="664" y="70"/>
      <point x="664" y="263" type="curve" smooth="yes"/>
      <point x="664" y="710" type="line"/>
      <point x="606" y="710" type="line"/>
      <point x="606" y="263" type="line" smooth="yes"/>
      <point x="606" y="109"/>
      <point x="530" y="54"/>
      <point x="423" y="54" type="curve" smooth="yes"/>
      <point x="313" y="54"/>
      <point x="237" y="108"/>
    </contour>
  </outline>
</glyph>
<glyph name="W" format="1">
  <advance width="1035"/>
  <unicode hex="0057"/>
  <outline>
    <contour>
      <point x="166" y="710" type="line"/>
      <point x="76" y="710" type="line"/>
      <point x="266" y="0" type="line"/>
      <point x="336" y="0" type="line"/>
      <point x="338" y="40" type="line"/>
    </contour>
    <contour>
      <point x="19" y="710" type="line"/>
      <point x="19" y="669" type="line"/>
      <point x="26" y="669" type="line" smooth="yes"/>
      <point x="63" y="669"/>
      <point x="88" y="668"/>
      <point x="96" y="636" type="curve"/>
      <point x="180" y="658" type="line"/>
      <point x="180" y="664"/>
      <point x="228" y="669"/>
      <point x="269" y="669" type="curve" smooth="yes"/>
      <point x="285" y="669" type="line"/>
      <point x="285" y="710" type="line"/>
    </contour>
    <contour>
      <point x="956" y="710" type="line"/>
      <point x="900" y="710" type="line"/>
      <point x="709" y="0" type="line"/>
      <point x="766" y="0" type="line"/>
    </contour>
    <contour>
      <point x="1016" y="710" type="line"/>
      <point x="778" y="710" type="line"/>
      <point x="778" y="669" type="line"/>
      <point x="798" y="669" type="line" smooth="yes"/>
      <point x="844" y="669"/>
      <point x="884" y="654"/>
      <point x="884" y="647" type="curve"/>
      <point x="931" y="618" type="line"/>
      <point x="941" y="653"/>
      <point x="969" y="669"/>
      <point x="1008" y="669" type="curve" smooth="yes"/>
      <point x="1016" y="669" type="line"/>
    </contour>
    <contour>
      <point x="579" y="710" type="line"/>
      <point x="490" y="710" type="line"/>
      <point x="302" y="0" type="line"/>
      <point x="359" y="0" type="line"/>
      <point x="525" y="659" type="line"/>
      <point x="506" y="668" type="line"/>
      <point x="672" y="0" type="line"/>
      <point x="743" y="0" type="line"/>
      <point x="745" y="40" type="line"/>
    </contour>
  </outline>
</glyph>
<glyph name="X" format="1">
  <advance width="732"/>
  <unicode hex="0058"/>
  <outline>
    <contour>
      <point x="84" y="707" type="line"/>
      <point x="332" y="338" type="line"/>
      <point x="338" y="335" type="line"/>
      <point x="565" y="0" type="line"/>
      <point x="667" y="3" type="line"/>
      <point x="405" y="386" type="line"/>
      <point x="400" y="389" type="line"/>
      <point x="187" y="710" type="line"/>
    </contour>
    <contour>
      <point x="331" y="378" type="line"/>
      <point x="67" y="3" type="line"/>
      <point x="131" y="0" type="line"/>
      <point x="366" y="338" type="line"/>
    </contour>
    <contour>
      <point x="404" y="354" type="line"/>
      <point x="651" y="708" type="line"/>
      <point x="586" y="710" type="line"/>
      <point x="368" y="392" type="line"/>
    </contour>
    <contour>
      <point x="45" y="710" type="line"/>
      <point x="45" y="669" type="line"/>
      <point x="58" y="669" type="line" smooth="yes"/>
      <point x="98" y="669"/>
      <point x="115" y="664"/>
      <point x="133" y="635" type="curve"/>
      <point x="222" y="658" type="line"/>
      <point x="222" y="664"/>
      <point x="271" y="669"/>
      <point x="311" y="669" type="curve" smooth="yes"/>
      <point x="326" y="669" type="line"/>
      <point x="326" y="710" type="line"/>
    </contour>
    <contour>
      <point x="692" y="710" type="line"/>
      <point x="440" y="710" type="line"/>
      <point x="440" y="669" type="line"/>
      <point x="456" y="669" type="line" smooth="yes"/>
      <point x="503" y="669"/>
      <point x="542" y="654"/>
      <point x="542" y="646" type="curve"/>
      <point x="588" y="618" type="line"/>
      <point x="616" y="656"/>
      <point x="632" y="669"/>
      <point x="674" y="669" type="curve" smooth="yes"/>
      <point x="692" y="669" type="line"/>
    </contour>
    <contour>
      <point x="711" y="0" type="line"/>
      <point x="711" y="41" type="line"/>
      <point x="698" y="41" type="line" smooth="yes"/>
      <point x="655" y="41"/>
      <point x="637" y="45"/>
      <point x="618" y="74" type="curve"/>
      <point x="529" y="53" type="line"/>
      <point x="529" y="46"/>
      <point x="480" y="41"/>
      <point x="439" y="41" type="curve" smooth="yes"/>
      <point x="424" y="41" type="line"/>
      <point x="424" y="0" type="line"/>
    </contour>
    <contour>
      <point x="21" y="0" type="line"/>
      <point x="278" y="0" type="line"/>
      <point x="278" y="41" type="line"/>
      <point x="262" y="41" type="line" smooth="yes"/>
      <point x="214" y="41"/>
      <point x="176" y="56"/>
      <point x="176" y="64" type="curve"/>
      <point x="129" y="91" type="line"/>
      <point x="102" y="52"/>
      <point x="84" y="41"/>
      <point x="37" y="41" type="curve" smooth="yes"/>
      <point x="21" y="41" type="line"/>
    </contour>
  </outline>
</glyph>
<glyph name="b" format="1">
  <advance width="645"/>
  <unicode hex="0062"/>
  <outline>
    <contour>
      <point x="498" y="274" type="curve" smooth="yes"/>
      <point x="498" y="407"/>
      <point x="452" y="494"/>
      <point x="360" y="494" type="curve" smooth="yes"/>
      <point x="280" y="494"/>
      <point x="219" y="439"/>
      <point x="173" y="342" type="curve"/>
      <point x="138" y="362" type="line"/>
      <point x="209" y="488"/>
      <point x="266" y="550"/>
      <point x="366" y="550" type="curve" smooth="yes"/>
      <point x="506" y="550"/>
      <point x="592" y="439"/>
      <point x="592" y="274" type="curve" smooth="yes"/>
      <point x="592" y="106"/>
      <point x="502" y="-11"/>
      <point x="358" y="-11" type="curve" smooth="yes"/>
      <point x="259" y="-11"/>
      <point x="200" y="43"/>
      <point x="136" y="170" type="curve"/>
      <point x="173" y="188" type="line"/>
      <point x="218" y="93"/>
      <point x="278" y="44"/>
      <point x="356" y="44" type="curve" smooth="yes"/>
      <point x="451" y="44"/>
      <point x="498" y="135"/>
    </contour>
    <contour>
      <point x="108" y="660" type="line" smooth="yes"/>
      <point x="108" y="689"/>
      <point x="84" y="696"/>
      <point x="32" y="705" type="curve" smooth="yes"/>
      <point x="20" y="707" type="line"/>
      <point x="20" y="750" type="line"/>
      <point x="196" y="750" type="line"/>
      <point x="196" y="118" type="line"/>
      <point x="188" y="105" type="line"/>
      <point x="162" y="-4" type="line"/>
      <point x="108" y="-4" type="line"/>
    </contour>
  </outline>
</glyph>
<glyph name="d" format="1">
  <advance width="656"/>
  <unicode hex="0064"/>
  <outline>
    <contour>
      <point x="147" y="267" type="curve" smooth="yes"/>
      <point x="147" y="404"/>
      <point x="196" y="494"/>
      <point x="293" y="494" type="curve" smooth="yes"/>
      <point x="371" y="494"/>
      <point x="430" y="449"/>
      <point x="473" y="350" type="curve"/>
      <point x="510" y="369" type="line"/>
      <point x="448" y="498"/>
      <point x="390" y="550"/>
      <point x="291" y="550" type="curve" smooth="yes"/>
      <point x="145" y="550"/>
      <point x="53" y="434"/>
      <point x="53" y="267" type="curve" smooth="yes"/>
      <point x="53" y="100"/>
      <point x="143" y="-11"/>
      <point x="284" y="-11" type="curve" smooth="yes"/>
      <point x="384" y="-11"/>
      <point x="438" y="50"/>
      <point x="508" y="177" type="curve"/>
      <point x="472" y="197" type="line"/>
      <point x="429" y="100"/>
      <point x="370" y="44"/>
      <point x="290" y="44" type="curve" smooth="yes"/>
      <point x="195" y="44"/>
      <point x="147" y="132"/>
    </contour>
    <contour>
      <point x="449" y="660" type="curve" smooth="yes"/>
      <point x="449" y="114" type="line"/>
      <point x="456" y="114" type="line"/>
      <point x="456" y="0" type="line"/>
      <point x="626" y="0" type="line"/>
      <point x="626" y="39" type="line"/>
      <point x="622" y="39" type="line"/>
      <point x="574" y="39"/>
      <point x="538" y="46"/>
      <point x="538" y="75" type="curve"/>
      <point x="538" y="750" type="line"/>
      <point x="361" y="750" type="line"/>
      <point x="361" y="707" type="line"/>
      <point x="373" y="705" type="line" smooth="yes"/>
      <point x="425" y="696"/>
      <point x="449" y="689"/>
    </contour>
  </outline>
</glyph>
<glyph name="e" format="1">
  <advance width="577"/>
  <unicode hex="0065"/>
  <outline>
    <contour>
      <point x="315" y="-12" type="curve" smooth="yes"/>
      <point x="414" y="-12"/>
      <point x="490" y="36"/>
      <point x="528" y="118" type="curve"/>
      <point x="480" y="146" type="line"/>
      <point x="449" y="84"/>
      <point x="395" y="43"/>
      <point x="319" y="43" type="curve" smooth="yes"/>
      <point x="223" y="43"/>
      <point x="144" y="119"/>
      <point x="144" y="264" type="curve" smooth="yes"/>
      <point x="144" y="406"/>
      <point x="212" y="495"/>
      <point x="305" y="495" type="curve"/>
      <point x="400" y="495"/>
      <point x="433" y="424"/>
      <point x="436" y="284" type="curve"/>
      <point x="464" y="306" type="line"/>
      <point x="114" y="306" type="line"/>
      <point x="115" y="254" type="line"/>
      <point x="532" y="254" type="line"/>
      <point x="532" y="446"/>
      <point x="458" y="550"/>
      <point x="305" y="550" type="curve"/>
      <point x="160" y="550"/>
      <point x="53" y="434"/>
      <point x="53" y="263" type="curve" smooth="yes"/>
      <point x="53" y="93"/>
      <point x="170" y="-12"/>
    </contour>
  </outline>
</glyph>
<glyph name="h" format="1">
  <advance width="683"/>
  <unicode hex="0068"/>
  <outline>
    <contour>
      <point x="46" y="0" type="line"/>
      <point x="300" y="0" type="line"/>
      <point x="300" y="39" type="line"/>
      <point x="299" y="39" type="line"/>
      <point x="271" y="39"/>
      <point x="222" y="42"/>
      <point x="222" y="49" type="curve"/>
      <point x="133" y="75" type="line"/>
      <point x="133" y="46"/>
      <point x="98" y="39"/>
      <point x="49" y="39" type="curve"/>
      <point x="46" y="39" type="line"/>
    </contour>
    <contour>
      <point x="400" y="0" type="line"/>
      <point x="654" y="0" type="line"/>
      <point x="654" y="39" type="line"/>
      <point x="652" y="39" type="line"/>
      <point x="603" y="39"/>
      <point x="567" y="46"/>
      <point x="567" y="75" type="curve"/>
      <point x="478" y="49" type="line"/>
      <point x="478" y="42"/>
      <point x="429" y="39"/>
      <point x="401" y="39" type="curve"/>
      <point x="400" y="39" type="line"/>
    </contour>
    <contour>
      <point x="384" y="493" type="curve" smooth="yes"/>
      <point x="455" y="493"/>
      <point x="478" y="458"/>
      <point x="478" y="380" type="curve" smooth="yes"/>
      <point x="478" y="0" type="line"/>
      <point x="567" y="0" type="line"/>
      <point x="567" y="389" type="line" smooth="yes"/>
      <point x="567" y="500"/>
      <point x="499" y="550"/>
      <point x="400" y="550" type="curve" smooth="yes"/>
      <point x="298" y="550"/>
      <point x="236" y="495"/>
      <point x="170" y="382" type="curve"/>
      <point x="196" y="358" type="line"/>
      <point x="245" y="446"/>
      <point x="308" y="493"/>
    </contour>
    <contour>
      <point x="46" y="750" type="line"/>
      <point x="46" y="707" type="line"/>
      <point x="58" y="705" type="line" smooth="yes"/>
      <point x="110" y="696"/>
      <point x="133" y="689"/>
      <point x="133" y="660" type="curve" smooth="yes"/>
      <point x="133" y="0" type="line"/>
      <point x="222" y="0" type="line"/>
      <point x="222" y="750" type="line"/>
    </contour>
  </outline>
</glyph>
<glyph name="j" format="1">
  <advance width="356"/>
  <unicode hex="006A"/>
  <outline>
    <contour>
      <point x="197" y="640" type="curve" smooth="yes"/>
      <point x="232" y="640"/>
      <point x="258" y="663"/>
      <point x="258" y="701" type="curve" smooth="yes"/>
      <point x="258" y="738"/>
      <point x="232" y="761"/>
      <point x="197" y="761" type="curve" smooth="yes"/>
      <point x="162" y="761"/>
      <point x="136" y="738"/>
      <point x="136" y="701" type="curve" smooth="yes"/>
      <point x="136" y="663"/>
      <point x="162" y="640"/>
    </contour>
    <contour>
      <point x="155" y="-50" type="line" smooth="yes"/>
      <point x="155" y="-147"/>
      <point x="114" y="-187"/>
      <point x="57" y="-187" type="curve" smooth="yes"/>
      <point x="28" y="-187"/>
      <point x="3" y="-181"/>
      <point x="-15" y="-177" type="curve"/>
      <point x="-15" y="-233" type="line"/>
      <point x="4" y="-238"/>
      <point x="35" y="-241"/>
      <point x="60" y="-241" type="curve" smooth="yes"/>
      <point x="142" y="-241"/>
      <point x="244" y="-199"/>
      <point x="244" y="-50" type="curve" smooth="yes"/>
      <point x="244" y="540" type="line"/>
      <point x="32" y="540" type="line"/>
      <point x="32" y="497" type="line"/>
      <point x="68" y="495" type="line" smooth="yes"/>
      <point x="130" y="492"/>
      <point x="155" y="479"/>
      <point x="155" y="450" type="curve" smooth="yes"/>
    </contour>
  </outline>
</glyph>
<glyph name="k" format="1">
  <advance width="648"/>
  <unicode hex="006B"/>
  <outline>
    <contour>
      <point x="134" y="0" type="line"/>
      <point x="222" y="0" type="line"/>
      <point x="222" y="750" type="line"/>
      <point x="46" y="750" type="line"/>
      <point x="46" y="707" type="line"/>
      <point x="58" y="705" type="line" smooth="yes"/>
      <point x="110" y="696"/>
      <point x="134" y="689"/>
      <point x="134" y="660" type="curve" smooth="yes"/>
    </contour>
    <contour>
      <point x="46" y="0" type="line"/>
      <point x="302" y="0" type="line"/>
      <point x="302" y="39" type="line"/>
      <point x="298" y="39" type="line"/>
      <point x="268" y="39"/>
      <point x="222" y="43"/>
      <point x="222" y="55" type="curve"/>
      <point x="134" y="75" type="line"/>
      <point x="134" y="46"/>
      <point x="98" y="39"/>
      <point x="49" y="39" type="curve"/>
      <point x="46" y="39" type="line"/>
    </contour>
    <contour>
      <point x="344" y="313" type="line"/>
      <point x="340" y="291" type="line"/>
      <point x="567" y="512" type="line"/>
      <point x="553" y="537" type="line"/>
      <point x="516" y="537" type="line"/>
      <point x="268" y="297" type="line"/>
      <point x="268" y="276" type="line"/>
      <point x="514" y="0" type="line"/>
      <point x="588" y="0" type="line"/>
      <point x="592" y="37" type="line"/>
    </contour>
    <contour>
      <point x="648" y="0" type="line"/>
      <point x="648" y="39" type="line"/>
      <point x="643" y="39" type="line"/>
      <point x="612" y="39"/>
      <point x="584" y="45"/>
      <point x="557" y="75" type="curve"/>
      <point x="470" y="50" type="line"/>
      <point x="470" y="43"/>
      <point x="420" y="39"/>
      <point x="396" y="39" type="curve"/>
      <point x="388" y="39" type="line"/>
      <point x="388" y="0" type="line"/>
    </contour>
    <contour>
      <point x="382" y="540" type="line"/>
      <point x="382" y="501" type="line"/>
      <point x="390" y="501" type="line"/>
      <point x="419" y="501"/>
      <point x="467" y="497"/>
      <point x="467" y="490" type="curve"/>
      <point x="514" y="461" type="line"/>
      <point x="544" y="490"/>
      <point x="569" y="501"/>
      <point x="604" y="501" type="curve"/>
      <point x="609" y="501" type="line"/>
      <point x="609" y="540" type="line"/>
    </contour>
  </outline>
</glyph>
<glyph name="m" format="1">
  <advance width="981"/>
  <unicode hex="006D"/>
  <outline>
    <contour>
      <point x="372" y="493" type="curve" smooth="yes"/>
      <point x="434" y="493"/>
      <point x="454" y="458"/>
      <point x="454" y="379" type="curve" smooth="yes"/>
      <point x="454" y="0" type="line"/>
      <point x="543" y="0" type="line"/>
      <point x="543" y="389" type="line"/>
      <point x="543" y="500"/>
      <point x="480" y="550"/>
      <point x="388" y="550" type="curve" smooth="yes"/>
      <point x="290" y="550"/>
      <point x="235" y="493"/>
      <point x="169" y="382" type="curve"/>
      <point x="196" y="357" type="line"/>
      <point x="244" y="445"/>
      <point x="300" y="493"/>
    </contour>
    <contour>
      <point x="694" y="493" type="curve" smooth="yes"/>
      <point x="755" y="493"/>
      <point x="775" y="458"/>
      <point x="775" y="379" type="curve" smooth="yes"/>
      <point x="775" y="0" type="line"/>
      <point x="864" y="0" type="line"/>
      <point x="864" y="389" type="line"/>
      <point x="864" y="500"/>
      <point x="801" y="550"/>
      <point x="708" y="550" type="curve" smooth="yes"/>
      <point x="612" y="550"/>
      <point x="556" y="493"/>
      <point x="490" y="382" type="curve"/>
      <point x="517" y="357" type="line"/>
      <point x="565" y="445"/>
      <point x="622" y="493"/>
    </contour>
    <contour>
      <point x="46" y="0" type="line"/>
      <point x="295" y="0" type="line"/>
      <point x="295" y="39" type="line"/>
      <point x="294" y="39" type="line"/>
      <point x="266" y="39"/>
      <point x="222" y="42"/>
      <point x="222" y="49" type="curve"/>
      <point x="133" y="75" type="line"/>
      <point x="133" y="46"/>
      <point x="98" y="39"/>
      <point x="49" y="39" type="curve"/>
      <point x="46" y="39" type="line"/>
    </contour>
    <contour>
      <point x="46" y="540" type="line"/>
      <point x="46" y="496" type="line"/>
      <point x="58" y="494" type="line" smooth="yes"/>
      <point x="109" y="485"/>
      <point x="133" y="477"/>
      <point x="133" y="449" type="curve" smooth="yes"/>
      <point x="133" y="0" type="line"/>
      <point x="222" y="0" type="line"/>
      <point x="222" y="424" type="line"/>
      <point x="213" y="437" type="line"/>
      <point x="213" y="540" type="line"/>
    </contour>
    <contour>
      <point x="381" y="0" type="line"/>
      <point x="616" y="0" type="line"/>
      <point x="616" y="39" type="line"/>
      <point x="615" y="39" type="line"/>
      <point x="587" y="39"/>
      <point x="543" y="42"/>
      <point x="543" y="49" type="curve"/>
      <point x="454" y="49" type="line"/>
      <point x="454" y="42"/>
      <point x="410" y="39"/>
      <point x="382" y="39" type="curve"/>
      <point x="381" y="39" type="line"/>
    </contour>
    <contour>
      <point x="952" y="0" type="line"/>
      <point x="952" y="39" type="line"/>
      <point x="948" y="39" type="line"/>
      <point x="900" y="39"/>
      <point x="864" y="46"/>
      <point x="864" y="75" type="curve"/>
      <point x="775" y="49" type="line"/>
      <point x="775" y="43"/>
      <point x="731" y="39"/>
      <point x="703" y="39" type="curve"/>
      <point x="702" y="39" type="line"/>
      <point x="702" y="0" type="line"/>
    </contour>
  </outline>
</glyph>
<glyph name="u" format="1">
  <advance width="665"/>
  <unicode hex="0075"/>
  <outline>
    <contour>
      <point x="117" y="450" type="line" smooth="yes"/>
      <point x="117" y="480"/>
      <point x="94" y="488"/>
      <point x="42" y="496" type="curve" smooth="yes"/>
      <point x="29" y="498" type="line"/>
      <point x="29" y="540" type="line"/>
      <point x="206" y="540" type="line"/>
      <point x="206" y="160" type="line" smooth="yes"/>
      <point x="206" y="80"/>
      <point x="229" y="46"/>
      <point x="300" y="46" type="curve" smooth="yes"/>
      <point x="375" y="46"/>
      <point x="438" y="92"/>
      <point x="486" y="182" type="curve"/>
      <point x="514" y="157" type="line"/>
      <point x="446" y="44"/>
      <point x="386" y="-11"/>
      <point x="285" y="-11" type="curve" smooth="yes"/>
      <point x="186" y="-11"/>
      <point x="117" y="39"/>
      <point x="117" y="150" type="curve"/>
    </contour>
    <contour>
      <point x="458" y="450" type="line" smooth="yes"/>
      <point x="458" y="480"/>
      <point x="434" y="490"/>
      <point x="382" y="496" type="curve" smooth="yes"/>
      <point x="359" y="498" type="line"/>
      <point x="359" y="540" type="line"/>
      <point x="547" y="540" type="line"/>
      <point x="547" y="72" type="line"/>
      <point x="547" y="43"/>
      <point x="582" y="36"/>
      <point x="631" y="36" type="curve"/>
      <point x="636" y="36" type="line"/>
      <point x="636" y="0" type="line"/>
      <point x="468" y="0" type="line"/>
      <point x="468" y="103" type="line"/>
      <point x="458" y="116" type="line"/>
    </contour>
  </outline>
</glyph>
<glyph name="G.srf" format="1">
  <advance width="769"/>
  <outline>
    <contour>
      <point x="486" y="351" type="line"/>
      <point x="486" y="310" type="line"/>
      <point x="496" y="310" type="line" smooth="yes"/>
      <point x="546" y="310"/>
      <point x="582" y="303"/>
      <point x="582" y="274" type="curve"/>
      <point x="672" y="274" type="line"/>
      <point x="672" y="303"/>
      <point x="705" y="310"/>
      <point x="744" y="310" type="curve" smooth="yes"/>
      <point x="748" y="310" type="line"/>
      <point x="748" y="351" type="line"/>
    </contour>
    <contour>
      <point x="388" y="720" type="curve" smooth="yes"/>
      <point x="202" y="720"/>
      <point x="58" y="569"/>
      <point x="58" y="355" type="curve" smooth="yes"/>
      <point x="58" y="137"/>
      <point x="192" y="-10"/>
      <point x="399" y="-10" type="curve" smooth="yes"/>
      <point x="524" y="-10"/>
      <point x="636" y="59"/>
      <point x="672" y="117" type="curve"/>
      <point x="672" y="314" type="line"/>
      <point x="582" y="322" type="line"/>
      <point x="582" y="118" type="line"/>
      <point x="563" y="95"/>
      <point x="503" y="40"/>
      <point x="400" y="40" type="curve" smooth="yes"/>
      <point x="246" y="40"/>
      <point x="158" y="160"/>
      <point x="158" y="355" type="curve" smooth="yes"/>
      <point x="158" y="545"/>
      <point x="254" y="670"/>
      <point x="388" y="670" type="curve" smooth="yes"/>
      <point x="506" y="670"/>
      <point x="569" y="599"/>
      <point x="596" y="499" type="curve"/>
      <point x="672" y="499" type="line"/>
      <point x="672" y="710" type="line"/>
      <point x="617" y="710" type="line"/>
      <point x="604" y="556" type="line"/>
      <point x="606" y="552"/>
      <point x="621" y="567"/>
      <point x="629" y="561" type="curve"/>
      <point x="591" y="660"/>
      <point x="504" y="720"/>
    </contour>
  </outline>
</glyph>
<glyph name="Q.alt4" format="1">
  <advance width="756"/>
  <outline>
    <contour>
      <point x="378" y="-10" type="curve" smooth="yes"/>
      <point x="563" y="-10"/>
      <point x="698" y="135"/>
      <point x="698" y="355" type="curve" smooth="yes"/>
      <point x="698" y="574"/>
      <point x="563" y="720"/>
      <point x="378" y="720" type="curve" smooth="yes"/>
      <point x="191" y="720"/>
      <point x="58" y="575"/>
      <point x="58" y="355" type="curve" smooth="yes"/>
      <point x="58" y="136"/>
      <point x="191" y="-10"/>
    </contour>
    <contour>
      <point x="378" y="40" type="curve" smooth="yes"/>
      <point x="243" y="40"/>
      <point x="158" y="158"/>
      <point x="158" y="355" type="curve" smooth="yes"/>
      <point x="158" y="552"/>
      <point x="243" y="670"/>
      <point x="378" y="670" type="curve" smooth="yes"/>
      <point x="513" y="670"/>
      <point x="597" y="552"/>
      <point x="597" y="355" type="curve" smooth="yes"/>
      <point x="597" y="158"/>
      <point x="513" y="40"/>
    </contour>
    <contour>
      <point x="346" y="-7" type="line"/>
      <point x="338" y="-129"/>
      <point x="434" y="-183"/>
      <point x="560" y="-183" type="curve" smooth="yes"/>
      <point x="597" y="-183"/>
      <point x="642" y="-178"/>
      <point x="686" y="-169" type="curve"/>
      <point x="686" y="-79" type="line"/>
      <point x="638" y="-93"/>
      <point x="600" y="-106"/>
      <point x="537" y="-106" type="curve" smooth="yes"/>
      <point x="457" y="-106"/>
      <point x="399" y="-77"/>
      <point x="404" y="10" type="curve"/>
    </contour>
  </outline>
</glyph>
<glyph name="a.alt" format="1">
  <advance width="595"/>
  <outline>
    <contour>
      <point x="428" y="319" type="line"/>
      <point x="182" y="303"/>
      <point x="58" y="257"/>
      <point x="58" y="131" type="curve" smooth="yes"/>
      <point x="58" y="42"/>
      <point x="135" y="-11"/>
      <point x="232" y="-11" type="curve" smooth="yes"/>
      <point x="328" y="-11"/>
      <point x="394" y="38"/>
      <point x="426" y="112" type="curve"/>
      <point x="451" y="143"/>
      <point x="414" y="140"/>
      <point x="407" y="140" type="curve"/>
      <point x="382" y="84"/>
      <point x="327" y="40"/>
      <point x="254" y="40" type="curve" smooth="yes"/>
      <point x="190" y="40"/>
      <point x="152" y="74"/>
      <point x="152" y="132" type="curve" smooth="yes"/>
      <point x="152" y="225"/>
      <point x="233" y="262"/>
      <point x="426" y="272" type="curve"/>
    </contour>
    <contour>
      <point x="576" y="0" type="line"/>
      <point x="576" y="38" type="line"/>
      <point x="572" y="38" type="line" smooth="yes"/>
      <point x="520" y="38"/>
      <point x="488" y="47"/>
      <point x="488" y="74" type="curve" smooth="yes"/>
      <point x="488" y="390" type="line" smooth="yes"/>
      <point x="488" y="509"/>
      <point x="390" y="548"/>
      <point x="291" y="548" type="curve" smooth="yes"/>
      <point x="180" y="548"/>
      <point x="91" y="491"/>
      <point x="80" y="384" type="curve"/>
      <point x="171" y="384" type="line"/>
      <point x="180" y="464"/>
      <point x="224" y="498"/>
      <point x="291" y="498" type="curve" smooth="yes"/>
      <point x="357" y="498"/>
      <point x="402" y="470"/>
      <point x="402" y="383" type="curve" smooth="yes"/>
      <point x="402" y="109" type="line"/>
      <point x="411" y="106" type="line"/>
      <point x="411" y="0" type="line"/>
    </contour>
  </outline>
</glyph>
<glyph name="f.alt" format="1">
  <advance width="445"/>
  <outline>
    <contour>
      <point x="42" y="40" type="line"/>
      <point x="42" y="0" type="line"/>
      <point x="377" y="0" type="line"/>
      <point x="377" y="40" type="line"/>
      <point x="346" y="40" type="line" smooth="yes"/>
      <point x="288" y="40"/>
      <point x="244" y="40"/>
      <point x="244" y="69" type="curve"/>
      <point x="155" y="76" type="line"/>
      <point x="155" y="47"/>
      <point x="120" y="40"/>
      <point x="64" y="40" type="curve"/>
    </contour>
    <contour>
      <point x="42" y="540" type="line"/>
      <point x="42" y="490" type="line"/>
      <point x="416" y="490" type="line"/>
      <point x="416" y="540" type="line"/>
    </contour>
    <contour>
      <point x="244" y="579" type="line" smooth="yes"/>
      <point x="244" y="671"/>
      <point x="296" y="710"/>
      <point x="364" y="710" type="curve" smooth="yes"/>
      <point x="394" y="710"/>
      <point x="418" y="708"/>
      <point x="438" y="704" type="curve"/>
      <point x="438" y="760" type="line"/>
      <point x="416" y="763"/>
      <point x="391" y="764"/>
      <point x="360" y="764" type="curve" smooth="yes"/>
      <point x="260" y="764"/>
      <point x="155" y="724"/>
      <point x="155" y="580" type="curve"/>
      <point x="155" y="-1" type="line"/>
      <point x="244" y="-1" type="line"/>
    </contour>
  </outline>
</glyph>
<glyph name="five.old" format="1">
  <advance width="600"/>
  <outline>
    <contour>
      <point x="156" y="225" type="line"/>
      <point x="208" y="477" type="line"/>
      <point x="183" y="454" type="line"/>
      <point x="513" y="454" type="line"/>
      <point x="513" y="528" type="line"/>
      <point x="160" y="528" type="line"/>
      <point x="98" y="225" type="line"/>
      <point x="98" y="192" type="line"/>
      <point x="217" y="192" type="line" smooth="yes"/>
      <point x="382" y="192"/>
      <point x="461" y="144"/>
      <point x="461" y="25" type="curve" smooth="yes"/>
      <point x="461" y="-88"/>
      <point x="394" y="-138"/>
      <point x="310" y="-138" type="curve" smooth="yes"/>
      <point x="220" y="-138"/>
      <point x="159" y="-92"/>
      <point x="146" y="23" type="curve"/>
      <point x="48" y="23" type="line"/>
      <point x="64" y="-121"/>
      <point x="167" y="-193"/>
      <point x="310" y="-193" type="curve" smooth="yes"/>
      <point x="443" y="-193"/>
      <point x="556" y="-117"/>
      <point x="556" y="25" type="curve" smooth="yes"/>
      <point x="556" y="162"/>
      <point x="452" y="247"/>
      <point x="238" y="247" type="curve" smooth="yes"/>
      <point x="126" y="247" type="line"/>
    </contour>
  </outline>
</glyph>
<glyph name="s.srf" format="1">
  <advance width="513"/>
  <outline>
    <contour>
      <point x="284" y="-10" type="curve"/>
      <point x="394" y="-10"/>
      <point x="472" y="50"/>
      <point x="472" y="147" type="curve" smooth="yes"/>
      <point x="472" y="258"/>
      <point x="383" y="285"/>
      <point x="296" y="307" type="curve" smooth="yes"/>
      <point x="215" y="326"/>
      <point x="143" y="337"/>
      <point x="143" y="413" type="curve" smooth="yes"/>
      <point x="143" y="464"/>
      <point x="175" y="500"/>
      <point x="242" y="500" type="curve" smooth="yes"/>
      <point x="306" y="500"/>
      <point x="353" y="460"/>
      <point x="376" y="392" type="curve"/>
      <point x="445" y="392" type="line"/>
      <point x="445" y="545" type="line"/>
      <point x="396" y="545" type="line"/>
      <point x="383" y="451" type="line"/>
      <point x="387" y="442"/>
      <point x="404" y="420"/>
      <point x="411" y="417" type="curve"/>
      <point x="396" y="488"/>
      <point x="330" y="552"/>
      <point x="237" y="552" type="curve" smooth="yes"/>
      <point x="136" y="552"/>
      <point x="65" y="491"/>
      <point x="65" y="402" type="curve" smooth="yes"/>
      <point x="65" y="287"/>
      <point x="156" y="258"/>
      <point x="242" y="237" type="curve" smooth="yes"/>
      <point x="320" y="217"/>
      <point x="390" y="202"/>
      <point x="390" y="134" type="curve" smooth="yes"/>
      <point x="390" y="74"/>
      <point x="343" y="42"/>
      <point x="280" y="42" type="curve" smooth="yes"/>
      <point x="194" y="42"/>
      <point x="135" y="91"/>
      <point x="111" y="175" type="curve"/>
      <point x="40" y="175" type="line"/>
      <point x="40" y="0" type="line"/>
      <point x="92" y="0" type="line"/>
      <point x="102" y="128" type="line"/>
      <point x="99" y="134"/>
      <point x="80" y="148"/>
      <point x="72" y="146" type="curve"/>
      <point x="106" y="33"/>
      <point x="198" y="-10"/>
    </contour>
  </outline>
</glyph>
<glyph name="seven.alt" format="1">
  <advance width="532"/>
  <outline>
    <contour>
      <point x="148" y="0" type="line"/>
      <point x="453" y="650" type="line"/>
      <point x="468" y="636" type="line"/>
      <point x="103" y="636" type="line"/>
      <point x="103" y="636" type="line"/>
      <point x="103" y="505" type="line"/>
      <point x="46" y="505" type="line"/>
      <point x="46" y="710" type="line"/>
      <point x="511" y="710" type="line"/>
      <point x="511" y="638" type="line"/>
      <point x="250" y="0" type="line"/>
    </contour>
  </outline>
</glyph>
<glyph name="three.old" format="1">
  <advance width="614"/>
  <outline>
    <contour>
      <point x="335" y="197" type="line"/>
      <point x="471" y="197"/>
      <point x="560" y="134"/>
      <point x="560" y="19" type="curve" smooth="yes"/>
      <point x="560" y="-122"/>
      <point x="446" y="-193"/>
      <point x="311" y="-193" type="curve" smooth="yes"/>
      <point x="170" y="-193"/>
      <point x="66" y="-122"/>
      <point x="50" y="22" type="curve"/>
      <point x="148" y="22" type="line"/>
      <point x="160" y="-92"/>
      <point x="220" y="-139"/>
      <point x="310" y="-139" type="curve" smooth="yes"/>
      <point x="396" y="-139"/>
      <point x="465" y="-94"/>
      <point x="465" y="19" type="curve" smooth="yes"/>
      <point x="465" y="130"/>
      <point x="402" y="162"/>
      <point x="304" y="162" type="curve" smooth="yes"/>
      <point x="221" y="162" type="line"/>
      <point x="221" y="212" type="line"/>
      <point x="293" y="212" type="line" smooth="yes"/>
      <point x="384" y="212"/>
      <point x="434" y="266"/>
      <point x="434" y="356" type="curve" smooth="yes"/>
      <point x="434" y="440"/>
      <point x="394" y="483"/>
      <point x="319" y="483" type="curve" smooth="yes"/>
      <point x="236" y="483"/>
      <point x="191" y="427"/>
      <point x="178" y="330" type="curve"/>
      <point x="82" y="330" type="line"/>
      <point x="99" y="457"/>
      <point x="189" y="537"/>
      <point x="319" y="537" type="curve" smooth="yes"/>
      <point x="447" y="537"/>
      <point x="524" y="466"/>
      <point x="524" y="357" type="curve" smooth="yes"/>
      <point x="524" y="253"/>
      <point x="442" y="188"/>
      <point x="312" y="188" type="curve"/>
    </contour>
  </outline>
</glyph>
<glyph name="two.alt" format="1">
  <advance width="596"/>
  <outline>
    <contour>
      <point x="76" y="28" type="curve"/>
      <point x="83" y="41"/>
      <point x="90" y="60"/>
      <point x="97" y="72" type="curve"/>
      <point x="490" y="72" type="line"/>
      <point x="490" y="72" type="line"/>
      <point x="490" y="205" type="line"/>
      <point x="548" y="205" type="line"/>
      <point x="548" y="0" type="line"/>
      <point x="36" y="0" type="line"/>
      <point x="36" y="58" type="line"/>
      <point x="261" y="224"/>
      <point x="415" y="368"/>
      <point x="415" y="531" type="curve" smooth="yes"/>
      <point x="415" y="616"/>
      <point x="366" y="666"/>
      <point x="294" y="666" type="curve" smooth="yes"/>
      <point x="207" y="666"/>
      <point x="166" y="609"/>
      <point x="145" y="513" type="curve"/>
      <point x="49" y="513" type="line"/>
      <point x="71" y="638"/>
      <point x="158" y="720"/>
      <point x="294" y="720" type="curve" smooth="yes"/>
      <point x="426" y="720"/>
      <point x="511" y="646"/>
      <point x="511" y="531" type="curve" smooth="yes"/>
      <point x="511" y="368"/>
      <point x="318" y="201"/>
    </contour>
  </outline>
</glyph>
